<?xml version="1.0" encoding="iso-8859-1"?>
<!-- Generator: Adobe Illustrator 16.0.0, SVG Export Plug-In . SVG Version: 6.00 Build 0)  -->
<!DOCTYPE svg PUBLIC "-//W3C//DTD SVG 1.1//EN" "http://www.w3.org/Graphics/SVG/1.1/DTD/svg11.dtd">
<svg xmlns="http://www.w3.org/2000/svg" xmlns:xlink="http://www.w3.org/1999/xlink" version="1.1" id="Capa_1" x="0px" y="0px" width="512px" height="512px" viewBox="0 0 535.385 535.385" style="enable-background:new 0 0 535.385 535.385;" xml:space="preserve">
<g>
	<g id="Layer_2_1_">
		<path d="M40.549,378.569c18.13,14.344,37.055,26.842,56.505,37.639c25.742-33.316,40.42-64.279,49.448-92.938    c-25.159,2.151-53.321,1.999-85.355-1.559C40.214,317.341-11.949,337.04,40.549,378.569z" fill="#FFFFFF"/>
		<path d="M489.365,417.537c54.908-35.525,20.625-114.243-26.814-156.261c-11.713-10.376-22.375-18.054-32.311-23.591    c-13.016,66.584-48.826,132.794-102.281,188.267c-14.84,15.405-30.676,29.558-47.324,42.495    C358.713,472.272,433.176,453.903,489.365,417.537z M444.439,276.576c9.285-4.179,24.711,9.983,34.463,31.643    c9.754,21.658,10.137,42.601,0.852,46.779s-24.709-9.983-34.463-31.643S435.154,280.755,444.439,276.576z" fill="#FFFFFF"/>
		<path d="M63.814,480.773c-15.052,11.676-31.633,54.611,11.36,54.611c5.26,0,11.427-0.641,18.59-2.065    c59.163-11.762,112.369-35.696,157.762-67.319c86.952-60.579,145.12-149.51,160.784-236.156c0.783-4.351,1.473-8.692,2.045-13.034    c4.285-32.513-14.295-54.937-41.748-68.143c-5.768,7.354-11.877,14.42-18.371,20.999c4.963,4.753,7.508,9.668,6.273,13.923    c-2.83,9.773-23.619,12.345-46.436,5.737c-22.816-6.607-39.006-19.899-36.174-29.672c1.969-6.799,12.697-10.012,26.668-9.18    c1.885-4.542,3.969-9.916,6.16-16.055c-2.516-0.096-5.031-0.21-7.537-0.21c-8.566,0-17.049,0.583-25.205,1.74    c-116.338,16.486-82.066,84.581-110.83,184.977c-9.084,31.719-24.585,66.66-53.005,104.222    C100.553,443.116,84.135,461.658,63.814,480.773z" fill="#FFFFFF"/>
		<path d="M323.762,125.804c-1.023,3.222-2.057,6.349-3.08,9.285c-2.17,6.225-4.283,11.781-6.225,16.562    c-5.02,12.374-8.787,19.536-8.787,19.536l24.068,7.536c5.891-4.533,11.521-9.591,16.926-15.004    c5.918-5.929,11.531-12.316,16.84-18.981c2.045-2.572,4.045-5.183,5.994-7.832c1.941-2.611,3.826-5.26,5.672-7.927    c35.592-51.389,54.562-110.83,54.562-110.83C418.688,6.321,400.299,0,382.111,0c-16.352,0-32.541,5.125-43.068,15.969    c2.17,37.638-4.543,73.039-12.498,100.569C325.635,119.722,324.707,122.84,323.762,125.804z" fill="#FFFFFF"/>
	</g>
</g>
<g>
</g>
<g>
</g>
<g>
</g>
<g>
</g>
<g>
</g>
<g>
</g>
<g>
</g>
<g>
</g>
<g>
</g>
<g>
</g>
<g>
</g>
<g>
</g>
<g>
</g>
<g>
</g>
<g>
</g>
</svg>
