<?xml version="1.0" encoding="iso-8859-1"?>
<!-- Generator: Adobe Illustrator 18.1.1, SVG Export Plug-In . SVG Version: 6.00 Build 0)  -->
<svg xmlns="http://www.w3.org/2000/svg" xmlns:xlink="http://www.w3.org/1999/xlink" version="1.1" id="Capa_1" x="0px" y="0px" viewBox="0 0 198.111 198.111" style="enable-background:new 0 0 198.111 198.111;" xml:space="preserve" width="512px" height="512px">
<g>
	<g>
		<g>
			<g>
				<g>
					<g>
						<path d="M59.971,169.605c-32.528,0-58.99-33.09-58.99-73.778c0-39.686,25.227-84.085,58.99-84.085        c20.99,0,41.486,18.631,52.226,47.47l-2.151,0.805c-10.4-27.933-30.055-45.985-50.079-45.985        c-31.927,0-56.696,43.97-56.696,81.795c0,39.417,25.435,71.48,56.696,71.48c3.532,0,7.115-0.426,10.643-1.27l0.533,2.23        C67.443,169.147,63.678,169.605,59.971,169.605z" fill="#babfb6"/>
						<path d="M59.971,170.095c-32.797,0-59.481-33.319-59.481-74.268c0-39.919,25.435-84.572,59.481-84.572        c21.198,0,41.876,18.753,52.684,47.785l0.175,0.469l-3.071,1.131l-0.168-0.458C99.263,32.449,79.783,14.523,59.971,14.523        c-31.651,0-56.206,43.705-56.206,81.304c0,39.149,25.209,70.99,56.206,70.99c3.497,0,7.043-0.426,10.525-1.263l0.48-0.111        l0.762,3.189l-0.472,0.111C67.515,169.637,63.718,170.095,59.971,170.095z M59.971,12.232        c-33.484,0-58.503,44.134-58.503,83.595c0,40.412,26.244,73.291,58.503,73.291c3.511,0,7.072-0.404,10.586-1.22l-0.308-1.27        c-3.403,0.784-6.864,1.181-10.278,1.181c-31.537,0-57.186-32.288-57.186-71.978c0-38.047,24.98-82.281,57.186-82.281        c20.12,0,39.851,17.969,50.362,45.841l1.238-0.458C100.852,30.545,80.639,12.232,59.971,12.232z" fill="#babfb6"/>
					</g>
				</g>
				<g>
					<g>
						<path d="M59.971,170.095c-32.797,0-59.481-33.319-59.481-74.268c0-39.919,25.435-84.572,59.481-84.572        c21.198,0,41.876,18.753,52.684,47.785l0.175,0.469l-3.071,1.131l-0.168-0.458C99.263,32.449,79.783,14.523,59.971,14.523        c-31.651,0-56.206,43.705-56.206,81.304c0,39.149,25.209,70.99,56.206,70.99c3.497,0,7.043-0.426,10.525-1.263l0.48-0.111        l0.762,3.189l-0.472,0.111C67.515,169.637,63.718,170.095,59.971,170.095z M59.971,12.232        c-33.484,0-58.503,44.134-58.503,83.595c0,40.412,26.244,73.291,58.503,73.291c3.511,0,7.072-0.404,10.586-1.22l-0.308-1.27        c-3.403,0.784-6.864,1.181-10.278,1.181c-31.537,0-57.186-32.288-57.186-71.978c0-38.047,24.98-82.281,57.186-82.281        c20.12,0,39.851,17.969,50.362,45.841l1.238-0.458C100.852,30.545,80.639,12.232,59.971,12.232z" fill="#babfb6"/>
						<path d="M59.971,170.582C26.906,170.582,0,137.052,0,95.824c0-40.155,25.65-85.066,59.971-85.066        c21.398,0,42.263,18.882,53.142,48.118l0.347,0.916l-3.987,1.478l-0.347-0.916C98.873,32.807,79.576,15.01,59.971,15.01        c-31.379,0-55.719,43.451-55.719,80.818c0,38.873,24.998,70.503,55.719,70.503c3.461,0,6.964-0.419,10.414-1.256l0.959-0.225        l0.988,4.13l-0.952,0.233C67.59,170.124,63.75,170.582,59.971,170.582z M59.971,12.719c-33.205,0-58.006,43.88-58.006,83.108        c0,40.148,26.022,72.794,58.006,72.794c3.318,0,6.671-0.369,9.992-1.092l-0.075-0.326c-3.285,0.723-6.624,1.092-9.917,1.092        c-31.805,0-57.677-32.514-57.677-72.468c0-38.283,25.195-82.772,57.677-82.772c20.181,0,40.029,17.919,50.651,45.702        l0.315-0.111C100.254,30.721,80.284,12.719,59.971,12.719z M70.614,166.033l0.533,2.23l0,0L70.614,166.033        c-0.057,0.011-0.118,0.032-0.179,0.043L70.614,166.033z M3.275,95.827c0,39.417,25.435,71.48,56.696,71.48        C28.71,167.304,3.275,135.241,3.275,95.827z M59.971,11.742c-33.763,0-58.99,44.388-58.99,84.085        C0.981,56.131,26.208,11.742,59.971,11.742z M109.949,59.763c0.032,0.079,0.068,0.161,0.097,0.254l2.151-0.805l0,0        l-2.151,0.805L109.949,59.763z M60.032,11.742c20.049,0.029,39.707,17.136,50.755,43.87        C99.732,28.86,80.109,11.771,60.032,11.742z" fill="#babfb6"/>
					</g>
				</g>
			</g>
		</g>
		<g>
			<g>
				<g>
					<g>
						<path d="M110.844,186.365c-14.204,0-27.461-4.731-37.27-14.494c-1.22-1.21-2.398-2.523-3.586-4.008        l1.789-1.432c1.134,1.421,2.255,2.673,3.414,3.822c22.175,22.042,62.809,17.229,90.602-10.722        c13.757-13.85,23.789-32.593,27.511-51.442c3.894-19.702,0.322-36.229-10.06-46.547        c-17.157-17.057-48.325-12.741-71.602-0.905l-1.045-2.047c28.86-14.673,58.704-14.144,74.265,1.324        c10.941,10.88,14.734,28.137,10.69,48.626c-3.804,19.272-14.065,38.444-28.137,52.609        C150.938,177.726,130.027,186.365,110.844,186.365z" fill="#babfb6"/>
						<path d="M110.844,186.852L110.844,186.852c-14.977,0-27.987-5.057-37.614-14.623        c-1.245-1.242-2.434-2.573-3.622-4.058l-0.304-0.387l2.555-2.044l0.304,0.383c1.124,1.406,2.23,2.645,3.378,3.779        c9.012,8.965,21.223,13.696,35.313,13.696c19.269,0,39.171-8.893,54.592-24.411c13.703-13.782,23.674-32.442,27.378-51.188        c3.862-19.541,0.336-35.914-9.921-46.11c-7.362-7.315-18.055-11.184-30.936-11.184c-12.719,0-26.959,3.683-40.105,10.368        l-0.429,0.225l-1.485-2.92l0.429-0.225c13.775-7.004,28.001-10.704,41.135-10.704c14.072,0,25.725,4.191,33.698,12.118        c11.062,10.991,14.902,28.412,10.826,49.062c-3.826,19.365-14.129,38.627-28.266,52.863        C151.743,177.615,131,186.852,110.844,186.852z M70.679,167.937c1.063,1.31,2.126,2.48,3.235,3.59        c9.445,9.394,22.214,14.351,36.927,14.351c19.895,0,40.387-9.14,56.227-25.073c14.008-14.094,24.218-33.183,28.001-52.369        c4.012-20.314,0.268-37.42-10.554-48.175c-7.791-7.734-19.201-11.835-33.008-11.835c-12.841,0-26.752,3.59-40.248,10.379        l0.594,1.17c13.152-6.603,27.382-10.246,40.108-10.246c13.142,0,24.079,3.969,31.623,11.47        c10.504,10.432,14.119,27.121,10.203,46.987c-3.74,18.936-13.818,37.775-27.65,51.693        c-15.604,15.7-35.756,24.694-55.29,24.694c-14.355,0-26.806-4.835-36.003-13.972c-1.07-1.056-2.101-2.205-3.146-3.479        L70.679,167.937z" fill="#babfb6"/>
					</g>
				</g>
				<g>
					<g>
						<path d="M110.844,186.852L110.844,186.852c-14.977,0-27.987-5.057-37.614-14.623        c-1.245-1.242-2.434-2.573-3.622-4.058l-0.304-0.387l2.555-2.044l0.304,0.383c1.124,1.406,2.23,2.645,3.378,3.779        c9.012,8.965,21.223,13.696,35.313,13.696c19.269,0,39.171-8.893,54.592-24.411c13.703-13.782,23.674-32.442,27.378-51.188        c3.862-19.541,0.336-35.914-9.921-46.11c-7.362-7.315-18.055-11.184-30.936-11.184c-12.719,0-26.959,3.683-40.105,10.368        l-0.429,0.225l-1.485-2.92l0.429-0.225c13.775-7.004,28.001-10.704,41.135-10.704c14.072,0,25.725,4.191,33.698,12.118        c11.062,10.991,14.902,28.412,10.826,49.062c-3.826,19.365-14.129,38.627-28.266,52.863        C151.743,177.615,131,186.852,110.844,186.852z M70.679,167.937c1.063,1.31,2.126,2.48,3.235,3.59        c9.445,9.394,22.214,14.351,36.927,14.351c19.895,0,40.387-9.14,56.227-25.073c14.008-14.094,24.218-33.183,28.001-52.369        c4.012-20.314,0.268-37.42-10.554-48.175c-7.791-7.734-19.201-11.835-33.008-11.835c-12.841,0-26.752,3.59-40.248,10.379        l0.594,1.17c13.152-6.603,27.382-10.246,40.108-10.246c13.142,0,24.079,3.969,31.623,11.47        c10.504,10.432,14.119,27.121,10.203,46.987c-3.74,18.936-13.818,37.775-27.65,51.693        c-15.604,15.7-35.756,24.694-55.29,24.694c-14.355,0-26.806-4.835-36.003-13.972c-1.07-1.056-2.101-2.205-3.146-3.479        L70.679,167.937z" fill="#babfb6"/>
						<path d="M110.844,187.353L110.844,187.353c-15.11,0-28.237-5.111-37.961-14.777        c-1.256-1.253-2.448-2.584-3.658-4.101l-0.616-0.762l3.321-2.666l0.612,0.773c1.12,1.396,2.208,2.623,3.339,3.736        c8.926,8.865,21.015,13.553,34.969,13.553c19.147,0,38.916-8.843,54.241-24.268c13.639-13.707,23.567-32.281,27.246-50.941        c3.829-19.369,0.358-35.588-9.785-45.663c-7.269-7.215-17.848-11.041-30.588-11.041c-12.644,0-26.802,3.661-39.883,10.318        l-0.873,0.44l-1.929-3.786l0.877-0.447c13.836-7.04,28.14-10.754,41.354-10.754c14.204,0,25.975,4.245,34.042,12.261        c11.177,11.112,15.074,28.688,10.962,49.499c-3.84,19.465-14.197,38.823-28.402,53.121        C152.001,178.051,131.126,187.342,110.844,187.353z M71.373,168.009c0.948,1.138,1.893,2.187,2.892,3.174        c9.352,9.294,21.996,14.208,36.583,14.208c19.762,0,40.13-9.087,55.877-24.93c13.943-14.026,24.1-33.026,27.865-52.115        c3.983-20.149,0.29-37.095-10.414-47.728c-7.691-7.652-18.982-11.692-32.661-11.692c-12.619,0-26.301,3.489-39.589,10.107        l0.147,0.293c13.102-6.51,27.249-10.082,39.893-10.082c13.274,0,24.333,4.008,31.97,11.599        c10.618,10.565,14.287,27.403,10.339,47.445c-3.761,19.018-13.89,37.954-27.786,51.94        c-15.697,15.79-35.975,24.848-55.637,24.848c-14.487,0-27.056-4.885-36.35-14.126c-0.988-0.973-1.929-2.015-2.87-3.142        L71.373,168.009z M70.657,168.689c0.748,0.895,1.496,1.739,2.265,2.534C72.15,170.418,71.402,169.573,70.657,168.689z         M71.777,166.431l-1.618,1.288L71.777,166.431l0.132,0.161C71.867,166.542,71.824,166.481,71.777,166.431z M197.066,90.269        c0.254,5.708-0.236,11.825-1.51,18.27c-3.056,15.443-10.253,30.843-20.235,43.633c9.981-12.791,17.182-28.191,20.235-43.633        C196.826,102.097,197.32,95.981,197.066,90.269z M194.754,89.936c0.297,5.647-0.183,11.735-1.449,18.156        c-2.917,14.799-9.731,29.533-19.183,41.887c9.455-12.354,16.266-27.088,19.183-41.887        C194.571,101.668,195.051,95.584,194.754,89.936z M151.965,50.218c12.895,0,23.635,3.847,31.079,11.13        C175.607,54.066,164.867,50.218,151.965,50.218z M111.556,60.465l0.086,0.172c1.063-0.54,2.137-1.07,3.207-1.568        c-0.93,0.437-1.857,0.884-2.774,1.342l-0.433,0.225L111.556,60.465z M151.289,47.939c-11.828,0.043-24.54,3.092-37.005,8.865        C126.745,51.031,139.464,47.982,151.289,47.939z M151.869,47.939c10.168,0.05,19.043,2.319,26.14,6.624        C170.912,50.258,162.036,47.989,151.869,47.939z" fill="#babfb6"/>
					</g>
				</g>
			</g>
		</g>
		<g>
			<g>
				<g>
					<g>
						<path d="M69.988,167.866c-19.247-23.993-13.331-62.644,13.754-89.897        c7.523-7.562,16.81-14.269,26.859-19.376l1.045,2.047c-9.842,4.996-18.929,11.549-26.276,18.946        c-26.265,26.423-32.109,63.754-13.589,86.848L69.988,167.866z" fill="#babfb6"/>
						<path d="M69.909,168.557l-0.304-0.383c-19.401-24.189-13.474-63.113,13.789-90.549        c7.555-7.601,16.881-14.33,26.981-19.465l0.437-0.225l1.489,2.92l-0.44,0.225c-9.788,4.978-18.835,11.499-26.14,18.857        c-26.093,26.247-31.923,63.299-13.56,86.193l0.304,0.376L69.909,168.557z M110.386,59.255        c-9.842,5.057-18.921,11.638-26.294,19.061c-26.766,26.927-32.746,65.024-14.026,88.859l1.027-0.823        c-18.306-23.302-12.369-60.658,13.932-87.109c7.272-7.315,16.244-13.818,25.961-18.814L110.386,59.255z" fill="#babfb6"/>
					</g>
				</g>
				<g>
					<g>
						<path d="M69.909,168.557l-0.304-0.383c-19.401-24.189-13.474-63.113,13.789-90.549        c7.555-7.601,16.881-14.33,26.981-19.465l0.437-0.225l1.489,2.92l-0.44,0.225c-9.788,4.978-18.835,11.499-26.14,18.857        c-26.093,26.247-31.923,63.299-13.56,86.193l0.304,0.376L69.909,168.557z M110.386,59.255        c-9.842,5.057-18.921,11.638-26.294,19.061c-26.766,26.927-32.746,65.024-14.026,88.859l1.027-0.823        c-18.306-23.302-12.369-60.658,13.932-87.109c7.272-7.315,16.244-13.818,25.961-18.814L110.386,59.255z" fill="#babfb6"/>
						<path d="M69.834,169.237l-0.612-0.762c-19.558-24.383-13.614-63.593,13.818-91.2        c7.591-7.634,16.971-14.398,27.117-19.558l0.87-0.437l1.933,3.786l-0.877,0.447c-9.752,4.957-18.746,11.449-26.018,18.764        c-25.918,26.076-31.73,62.841-13.524,85.542l0.608,0.762L69.834,169.237z M110.171,59.913        c-9.616,5.007-18.51,11.481-25.736,18.746c-26.373,26.534-32.467,64.183-14.294,87.821l0.265-0.215        c-18.073-23.495-11.993-60.962,14.262-87.374c7.193-7.233,16.051-13.696,25.653-18.682L110.171,59.913z M82.496,79.25        c-25.367,26.501-31.168,63.127-13.868,86.837C51.349,142.392,57.197,105.68,82.496,79.25z M106.589,60.74        c-8.253,4.638-15.869,10.329-22.253,16.638C90.72,71.069,98.34,65.378,106.589,60.74z M111.646,60.64l-0.433,0.225        c-1.843,0.934-3.65,1.943-5.429,2.992C107.702,62.723,109.656,61.646,111.646,60.64L111.646,60.64z" fill="#babfb6"/>
					</g>
				</g>
			</g>
		</g>
	</g>
</g>
<g>
</g>
<g>
</g>
<g>
</g>
<g>
</g>
<g>
</g>
<g>
</g>
<g>
</g>
<g>
</g>
<g>
</g>
<g>
</g>
<g>
</g>
<g>
</g>
<g>
</g>
<g>
</g>
<g>
</g>
</svg>
