<?xml version="1.0" encoding="iso-8859-1"?>
<!-- Generator: Adobe Illustrator 16.0.0, SVG Export Plug-In . SVG Version: 6.00 Build 0)  -->
<!DOCTYPE svg PUBLIC "-//W3C//DTD SVG 1.1//EN" "http://www.w3.org/Graphics/SVG/1.1/DTD/svg11.dtd">
<svg xmlns="http://www.w3.org/2000/svg" xmlns:xlink="http://www.w3.org/1999/xlink" version="1.1" id="Capa_1" x="0px" y="0px" width="512px" height="512px" viewBox="0 0 180.105 180.105" style="enable-background:new 0 0 180.105 180.105;" xml:space="preserve">
<g>
	<path d="M176.515,108.208c-2.6-0.716-5.28,0.808-5.996,3.407c-1.966,7.149-7.43,13.959-15.722,19.773l-5.886-6.494l1.117-16.082   c0,0-6.145-4.692-11.202-12.102c3.067-9.511-2.727-18.892-7.083-23.879c11.445-11.537,27.314,0.031,27.314,0.031   s36.49,4.88,12.648-11.923c-18.859-13.284-36.698,1.899-43.335,8.831c-5.2-2.641-17.773-0.582-32.121,0.744   C80.59,71.955,78.135,57.69,78.135,57.69s-0.541-0.357,5.784-3.796C63.32,13.793,36.407,22.467,36.407,22.467   s0.338,6.177-0.541,6.505c-1.81-1.991-14.274,2.164-10.118,1.988c4.154-0.183,8.49,4.695,8.49,4.695s-3.25,0.358-5.418,3.796   c-2.168,3.433-1.805,9.754-1.805,9.754c-0.727,9.75-5.058,13.005-4.159,18.423c0.904,5.418,10.836,2.169,9.572-1.264   c-1.262-3.43,4.514-6.68,4.514-6.68c10.113-2.168,10.295-11.382,10.295-11.382s10.659,23.663,2.168,40.824   c0,0-18.568,29.574-22.401,33.773c-2.412,1.808-3.301,4.642-3.578,7.114c-7.244-5.499-12.032-11.801-13.848-18.397   c-0.711-2.595-3.395-4.123-5.994-3.407c-2.595,0.711-4.124,3.397-3.41,5.992c7.056,25.628,44.854,44.229,89.878,44.229   c45.031,0,82.821-18.595,89.875-44.229C180.644,111.6,179.116,108.919,176.515,108.208z M144.316,137.467   c-14.995,7.227-34.266,11.202-54.263,11.202s-39.269-3.976-54.266-11.202c-2.288-1.102-4.451-2.27-6.479-3.488   c0.853-9.104,9.595-16.869,27.868-34.018c23.664,15.895,54.551-4.336,54.551-4.336c8.673,12.278,19.87,12.278,22.038,13.726   s7.043,3.25,7.043,3.25l3.616,13.908l5.514,7.968C148.166,135.523,146.287,136.513,144.316,137.467z" fill="#FFDA44"/>
</g>
<g>
</g>
<g>
</g>
<g>
</g>
<g>
</g>
<g>
</g>
<g>
</g>
<g>
</g>
<g>
</g>
<g>
</g>
<g>
</g>
<g>
</g>
<g>
</g>
<g>
</g>
<g>
</g>
<g>
</g>
</svg>
