<?xml version="1.0" encoding="iso-8859-1"?>
<!-- Generator: Adobe Illustrator 16.0.0, SVG Export Plug-In . SVG Version: 6.00 Build 0)  -->
<!DOCTYPE svg PUBLIC "-//W3C//DTD SVG 1.1//EN" "http://www.w3.org/Graphics/SVG/1.1/DTD/svg11.dtd">
<svg xmlns="http://www.w3.org/2000/svg" xmlns:xlink="http://www.w3.org/1999/xlink" version="1.1" id="Capa_1" x="0px" y="0px" width="512px" height="512px" viewBox="0 0 612.861 612.861" style="enable-background:new 0 0 612.861 612.861;" xml:space="preserve">
<g>
	<g id="Acorn">
		<g>
			<path d="M524.466,139.089c33.7-25.524,58.344-62.134,67.975-103.876c3.562-15.49-6.07-30.885-21.541-34.447     c-15.472-3.619-30.866,6.051-34.447,21.503c-7.142,30.962-26.232,57.941-52.33,75.5C416.779,36.457,337.373,0,267.963,0     c-42.432,0-78.525,13.671-104.375,39.54c-21.158,21.158-34.332,50.09-38.142,83.695l-0.785,6.97     C3.801,252.865-32.599,417.995,31.929,521.47c-16.142,20.2-17.788,46.586-2.7,61.675c14.993,14.992,41.129,13.461,61.292-2.394     c33.413,21.139,73.584,32.11,118.103,32.11c17.195,0,35.021-1.627,53.346-4.921c77.663-13.939,155.69-56.658,220.218-120.248     l6.894-0.785c33.623-3.791,62.574-16.983,83.694-38.123C641.057,380.484,618.749,249.169,524.466,139.089z M444.18,444.61     c-56.773,56.773-125.073,94.666-192.358,106.748c-63.475,11.412-117.969-1.876-153.469-37.376     c-76.208-76.208-45.074-231.343,69.411-345.846c0.938-0.938,1.915-1.781,2.834-2.7c53.594,26.232,109.219,66.883,159.29,116.954     c50.109,50.091,90.779,105.715,116.992,159.328C445.979,442.677,445.118,443.672,444.18,444.61z M532.183,408.134     c-7.812,7.812-17.616,13.633-29.22,17.387c-28.875-62.097-75.212-126.529-132.426-183.742     c-57.194-57.175-121.626-103.513-183.742-132.368c3.753-11.623,9.574-21.407,17.386-29.22     c18.765-18.746,45.036-22.69,63.762-22.69c59.089,0,132.425,36.61,191.381,95.547     C548.209,241.893,581.584,358.732,532.183,408.134z" fill="#FFFFFF"/>
		</g>
	</g>
</g>
<g>
</g>
<g>
</g>
<g>
</g>
<g>
</g>
<g>
</g>
<g>
</g>
<g>
</g>
<g>
</g>
<g>
</g>
<g>
</g>
<g>
</g>
<g>
</g>
<g>
</g>
<g>
</g>
<g>
</g>
</svg>
