<?xml version="1.0" encoding="iso-8859-1"?>
<!-- Generator: Adobe Illustrator 19.0.0, SVG Export Plug-In . SVG Version: 6.00 Build 0)  -->
<svg xmlns="http://www.w3.org/2000/svg" xmlns:xlink="http://www.w3.org/1999/xlink" version="1.1" id="Capa_1" x="0px" y="0px" viewBox="0 0 511 511" style="enable-background:new 0 0 511 511;" xml:space="preserve" width="512px" height="512px">
<g>
	<path d="M127.5,320h-16c-9.098,0-16.5-7.402-16.5-16.5s7.402-16.5,16.5-16.5h32c4.142,0,7.5-3.358,7.5-7.5s-3.358-7.5-7.5-7.5h-32   C94.131,272,80,286.131,80,303.5S94.131,335,111.5,335h16c9.098,0,16.5,7.402,16.5,16.5s-7.402,16.5-16.5,16.5h-32   c-4.142,0-7.5,3.358-7.5,7.5s3.358,7.5,7.5,7.5h32c17.369,0,31.5-14.131,31.5-31.5S144.869,320,127.5,320z" fill="#babfb6"/>
	<path d="M183.5,240c-4.142,0-7.5,3.358-7.5,7.5v16c0,4.142,3.358,7.5,7.5,7.5s7.5-3.358,7.5-7.5v-16   C191,243.358,187.642,240,183.5,240z" fill="#babfb6"/>
	<path d="M183.5,288c-4.142,0-7.5,3.358-7.5,7.5v64c0,4.142,3.358,7.5,7.5,7.5s7.5-3.358,7.5-7.5v-64   C191,291.358,187.642,288,183.5,288z" fill="#babfb6"/>
	<path d="M455.5,240c-4.142,0-7.5,3.358-7.5,7.5v16c0,4.142,3.358,7.5,7.5,7.5s7.5-3.358,7.5-7.5v-16   C463,243.358,459.642,240,455.5,240z" fill="#babfb6"/>
	<path d="M455.5,288c-4.142,0-7.5,3.358-7.5,7.5v64c0,4.142,3.358,7.5,7.5,7.5s7.5-3.358,7.5-7.5v-64   C463,291.358,459.642,288,455.5,288z" fill="#babfb6"/>
	<path d="M511,439.5c0-4.142-3.358-7.5-7.5-7.5H495V247.5c0-19.216-13.795-35.262-32-38.777V174.73   c4.689-0.869,8.754-3.847,10.989-8.212c2.663-5.2,2.203-11.364-1.199-16.085C455.447,126.368,425.059,112,391.5,112   s-63.947,14.368-81.289,38.433c-3.402,4.721-3.862,10.885-1.2,16.085c2.235,4.365,6.3,7.343,10.989,8.212v33.993   c-18.205,3.515-32,19.561-32,38.777V432h-8.5c-4.142,0-7.5,3.358-7.5,7.5v8c0,6.046,1.716,11.698,4.681,16.5H263V93.867   c9.434-2.918,16.522-11.211,17.555-21.541l4.024-40.242c0.819-8.188-1.878-16.383-7.4-22.484C271.658,3.499,263.772,0,255.544,0   h-0.088c-8.229,0-16.114,3.499-21.635,9.6c-5.521,6.101-8.219,14.296-7.4,22.483l4.024,40.242   c1.033,10.33,8.121,18.623,17.555,21.541V464h-13.681c2.965-4.802,4.681-10.454,4.681-16.5v-8c0-4.142-3.358-7.5-7.5-7.5H223V247.5   c0-19.216-13.795-35.262-32-38.777V174.73c4.689-0.869,8.754-3.847,10.989-8.212c2.663-5.2,2.203-11.364-1.199-16.085   C183.447,126.368,153.059,112,119.5,112s-63.947,14.368-81.289,38.433c-3.402,4.721-3.862,10.885-1.2,16.085   c2.235,4.365,6.3,7.343,10.989,8.212v33.993c-18.205,3.515-32,19.561-32,38.777V432H7.5c-4.142,0-7.5,3.358-7.5,7.5v8   c0,6.465,1.96,12.479,5.313,17.485C2.172,466.537,0,469.765,0,473.5v14C0,500.458,10.542,511,23.5,511h464   c12.958,0,23.5-10.542,23.5-23.5v-14c0-3.735-2.172-6.963-5.314-8.515C509.04,459.979,511,453.965,511,447.5V439.5z    M241.347,30.591c-0.404-4.037,0.873-7.917,3.596-10.926c2.723-3.008,6.457-4.665,10.514-4.665h0.088   c4.057,0,7.791,1.657,10.514,4.665c2.723,3.009,4,6.889,3.596,10.926l-4.024,40.242C265.107,76.059,260.752,80,255.5,80   s-9.607-3.941-10.129-9.167L241.347,30.591z M335,175h113v33H335V175z M322.38,159.203C336.694,139.339,363.179,127,391.5,127   s54.806,12.339,69.12,32.203c0.072,0.1,0.153,0.213,0.017,0.48C460.475,160,460.26,160,460.145,160H455.5h-128h-4.645   c-0.115,0-0.33,0-0.492-0.317C322.227,159.416,322.308,159.303,322.38,159.203z M303,247.5c0-13.509,10.991-24.5,24.5-24.5h128   c13.509,0,24.5,10.991,24.5,24.5V432H303V247.5z M287,447.5V447h209v0.5c0,9.098-7.402,16.5-16.5,16.5h-176   C294.402,464,287,456.598,287,447.5z M63,175h113v33H63V175z M50.38,159.203C64.694,139.339,91.179,127,119.5,127   s54.806,12.339,69.12,32.203c0.072,0.1,0.153,0.213,0.017,0.48C188.475,160,188.26,160,188.145,160H183.5h-128h-4.645   c-0.115,0-0.33,0-0.492-0.317C50.227,159.416,50.308,159.303,50.38,159.203z M31,247.5c0-13.509,10.991-24.5,24.5-24.5h128   c13.509,0,24.5,10.991,24.5,24.5V432H31V247.5z M15,447h209v0.5c0,9.098-7.402,16.5-16.5,16.5h-176c-9.098,0-16.5-7.402-16.5-16.5   V447z M496,487.5c0,4.687-3.813,8.5-8.5,8.5h-464c-4.687,0-8.5-3.813-8.5-8.5V479h16.5h176h96h176H496V487.5z" fill="#babfb6"/>
	<path d="M399.5,272h-40c-4.142,0-7.5,3.358-7.5,7.5v96c0,4.142,3.358,7.5,7.5,7.5s7.5-3.358,7.5-7.5V335h32.5   c17.369,0,31.5-14.131,31.5-31.5S416.869,272,399.5,272z M399.5,320H367v-33h32.5c9.098,0,16.5,7.402,16.5,16.5   S408.598,320,399.5,320z" fill="#babfb6"/>
</g>
<g>
</g>
<g>
</g>
<g>
</g>
<g>
</g>
<g>
</g>
<g>
</g>
<g>
</g>
<g>
</g>
<g>
</g>
<g>
</g>
<g>
</g>
<g>
</g>
<g>
</g>
<g>
</g>
<g>
</g>
</svg>
